<?xml version="1.0" encoding="utf-8"?>
<!-- Generator: Adobe Illustrator 25.0.0, SVG Export Plug-In . SVG Version: 6.00 Build 0)  -->
<svg version="1.1" id="Layer_1" xmlns="http://www.w3.org/2000/svg" xmlns:xlink="http://www.w3.org/1999/xlink" x="0px" y="0px"
	 viewBox="0 0 491.77 118.27" style="enable-background:new 0 0 491.77 118.27;" xml:space="preserve">
<style type="text/css">
	.st0{fill:#171433;}
	.st1{fill:#F5B548;}
</style>
<g>
	<g>
		<path class="st0" d="M54.16,16.73H13.09v64.08c10.01,12.27,24.34,20.87,40.67,23.49h0.39V16.73z"/>
	</g>
</g>
<g>
	<path class="st1" d="M57.15,16.73h41.07v64.08C88.2,93.08,73.87,101.68,57.54,104.3h-0.39V16.73z"/>
</g>
<g>
	<path class="st0" d="M180.3,71.28l-0.06-26.46l-13.12,21.9h-3.31L150.7,45.16v26.12h-7.07V31.36h6.1l15.85,26.46l15.57-26.46h6.1
		l0.06,39.92H180.3z"/>
	<path class="st0" d="M215.03,40.49v6.79c-0.61-0.11-1.16-0.17-1.65-0.17c-2.78,0-4.94,0.81-6.5,2.42
		c-1.56,1.62-2.34,3.94-2.34,6.99v14.77h-7.13V40.83h6.79v4.45C206.25,42.08,209.86,40.49,215.03,40.49z"/>
	<path class="st0" d="M219.76,70.34c-0.91-0.89-1.37-2.02-1.37-3.39c0-1.41,0.45-2.55,1.34-3.42c0.89-0.87,2-1.31,3.34-1.31
		c1.33,0,2.44,0.44,3.34,1.31c0.89,0.88,1.34,2.02,1.34,3.42c0,1.37-0.46,2.5-1.37,3.39c-0.91,0.89-2.02,1.34-3.31,1.34
		C221.78,71.68,220.68,71.23,219.76,70.34z"/>
	<path class="st0" d="M284.66,54.14c1.29,1.69,1.94,3.79,1.94,6.3c0,3.46-1.33,6.13-3.99,8.01c-2.66,1.88-6.54,2.82-11.63,2.82
		h-19.85V31.36h18.71c4.71,0,8.34,0.92,10.89,2.77c2.55,1.84,3.82,4.38,3.82,7.61c0,1.98-0.46,3.73-1.37,5.25s-2.17,2.7-3.76,3.54
		C281.62,51.24,283.37,52.45,284.66,54.14z M258.54,37.18v11.01h10.49c2.58,0,4.57-0.46,5.96-1.4c1.39-0.93,2.08-2.29,2.08-4.08
		c0-1.83-0.69-3.2-2.08-4.13c-1.39-0.93-3.37-1.4-5.96-1.4H258.54z M279.13,59.7c0-3.84-2.87-5.76-8.61-5.76h-11.98v11.52h11.98
		C276.26,65.46,279.13,63.54,279.13,59.7z"/>
	<path class="st0" d="M299.2,69.68c-2.47-1.33-4.4-3.18-5.79-5.56c-1.39-2.38-2.08-5.07-2.08-8.07c0-3,0.69-5.68,2.08-8.04
		c1.39-2.36,3.32-4.2,5.79-5.53c2.47-1.33,5.25-2,8.33-2c3.12,0,5.91,0.67,8.38,2c2.47,1.33,4.4,3.17,5.79,5.53
		c1.39,2.36,2.08,5.04,2.08,8.04c0,3-0.69,5.69-2.08,8.07c-1.39,2.38-3.32,4.23-5.79,5.56c-2.47,1.33-5.27,2-8.38,2
		C304.45,71.68,301.67,71.02,299.2,69.68z M314.03,62.95c1.71-1.75,2.57-4.05,2.57-6.9s-0.86-5.15-2.57-6.9
		c-1.71-1.75-3.88-2.62-6.5-2.62s-4.78,0.88-6.47,2.62c-1.69,1.75-2.54,4.05-2.54,6.9s0.85,5.15,2.54,6.9
		c1.69,1.75,3.85,2.62,6.47,2.62S312.32,64.7,314.03,62.95z"/>
	<path class="st0" d="M335.98,69.68c-2.47-1.33-4.4-3.18-5.79-5.56c-1.39-2.38-2.08-5.07-2.08-8.07c0-3,0.69-5.68,2.08-8.04
		c1.39-2.36,3.32-4.2,5.79-5.53c2.47-1.33,5.25-2,8.33-2c3.12,0,5.91,0.67,8.38,2c2.47,1.33,4.4,3.17,5.79,5.53
		c1.39,2.36,2.08,5.04,2.08,8.04c0,3-0.69,5.69-2.08,8.07c-1.39,2.38-3.32,4.23-5.79,5.56c-2.47,1.33-5.27,2-8.38,2
		C341.23,71.68,338.45,71.02,335.98,69.68z M350.81,62.95c1.71-1.75,2.57-4.05,2.57-6.9s-0.86-5.15-2.57-6.9
		c-1.71-1.75-3.88-2.62-6.5-2.62s-4.78,0.88-6.47,2.62c-1.69,1.75-2.54,4.05-2.54,6.9s0.85,5.15,2.54,6.9
		c1.69,1.75,3.85,2.62,6.47,2.62S349.1,64.7,350.81,62.95z"/>
	<path class="st0" d="M369.57,70.71c-2.36-0.65-4.24-1.46-5.65-2.45l2.74-5.42c1.37,0.91,3.01,1.65,4.93,2.2
		c1.92,0.55,3.81,0.83,5.67,0.83c4.26,0,6.39-1.12,6.39-3.36c0-1.06-0.54-1.81-1.63-2.22c-1.08-0.42-2.82-0.82-5.22-1.2
		c-2.51-0.38-4.55-0.82-6.13-1.31c-1.58-0.49-2.95-1.36-4.11-2.59c-1.16-1.24-1.74-2.96-1.74-5.16c0-2.89,1.21-5.2,3.62-6.93
		c2.41-1.73,5.67-2.59,9.78-2.59c2.09,0,4.18,0.24,6.27,0.71c2.09,0.48,3.8,1.11,5.13,1.91l-2.74,5.42
		c-2.59-1.52-5.49-2.28-8.72-2.28c-2.09,0-3.68,0.31-4.76,0.94c-1.08,0.63-1.62,1.45-1.62,2.48c0,1.14,0.58,1.95,1.74,2.42
		c1.16,0.48,2.96,0.92,5.39,1.34c2.43,0.38,4.43,0.82,5.99,1.31s2.9,1.33,4.02,2.51c1.12,1.18,1.68,2.85,1.68,5.02
		c0,2.85-1.24,5.13-3.71,6.84s-5.84,2.57-10.09,2.57C374.34,71.68,371.93,71.36,369.57,70.71z"/>
	<path class="st0" d="M415.08,69.63c-0.84,0.68-1.85,1.2-3.05,1.54c-1.2,0.34-2.46,0.51-3.79,0.51c-3.35,0-5.93-0.87-7.76-2.62
		c-1.82-1.75-2.74-4.3-2.74-7.64V46.76h-5.02v-5.7h5.02V34.1h7.13v6.96h8.16v5.7h-8.16v14.49c0,1.48,0.36,2.61,1.08,3.39
		s1.77,1.17,3.14,1.17c1.6,0,2.93-0.42,3.99-1.25L415.08,69.63z"/>
	<path class="st0" d="M448.44,58.34h-23.89c0.42,2.24,1.51,4.02,3.28,5.33c1.77,1.31,3.96,1.97,6.59,1.97c3.35,0,6.1-1.1,8.27-3.31
		l3.82,4.39c-1.37,1.64-3.1,2.87-5.19,3.71c-2.09,0.84-4.45,1.25-7.07,1.25c-3.35,0-6.29-0.67-8.84-2c-2.55-1.33-4.52-3.18-5.9-5.56
		c-1.39-2.38-2.08-5.07-2.08-8.07c0-2.97,0.67-5.64,2.02-8.01c1.35-2.38,3.22-4.23,5.62-5.56c2.4-1.33,5.09-2,8.1-2
		c2.96,0,5.62,0.66,7.96,1.97s4.16,3.16,5.47,5.53s1.97,5.12,1.97,8.24C448.56,56.72,448.52,57.42,448.44,58.34z M427.37,48.21
		c-1.58,1.35-2.54,3.15-2.88,5.39h17.28c-0.3-2.2-1.24-3.99-2.79-5.36c-1.56-1.37-3.5-2.05-5.82-2.05
		C430.88,46.19,428.95,46.86,427.37,48.21z"/>
	<path class="st0" d="M473.02,40.49v6.79c-0.61-0.11-1.16-0.17-1.65-0.17c-2.78,0-4.94,0.81-6.5,2.42s-2.34,3.94-2.34,6.99v14.77
		h-7.13V40.83h6.79v4.45C464.24,42.08,467.85,40.49,473.02,40.49z"/>
</g>
</svg>
